<svg xmlns="http://www.w3.org/2000/svg" xmlns:xlink="http://www.w3.org/1999/xlink" width="192" zoomAndPan="magnify" viewBox="0 0 144 143.999998" height="192" preserveAspectRatio="xMidYMid meet" version="1.0"><defs><clipPath id="a1407910b7"><path d="M 72 0 C 32.234375 0 0 32.234375 0 72 C 0 111.765625 32.234375 144 72 144 C 111.765625 144 144 111.765625 144 72 C 144 32.234375 111.765625 0 72 0 Z M 72 0 " clip-rule="nonzero"/></clipPath><clipPath id="84fab1c9a3"><path d="M 0 0 L 144 0 L 144 144 L 0 144 Z M 0 0 " clip-rule="nonzero"/></clipPath><clipPath id="a116888986"><path d="M 72 0 C 32.234375 0 0 32.234375 0 72 C 0 111.765625 32.234375 144 72 144 C 111.765625 144 144 111.765625 144 72 C 144 32.234375 111.765625 0 72 0 Z M 72 0 " clip-rule="nonzero"/></clipPath><clipPath id="a4d92592bc"><rect x="0" width="144" y="0" height="144"/></clipPath><clipPath id="03f8743c3b"><path d="M 26.324219 23.339844 L 117.824219 23.339844 L 117.824219 107.339844 L 26.324219 107.339844 Z M 26.324219 23.339844 " clip-rule="nonzero"/></clipPath></defs><g clip-path="url(#a1407910b7)"><g transform="matrix(1, 0, 0, 1, 0, -0.000000000000008916)"><g clip-path="url(#a4d92592bc)"><g clip-path="url(#84fab1c9a3)"><g clip-path="url(#a116888986)"><rect x="-31.68" width="207.36" fill="#00fca8" height="207.359996" y="-31.679999" fill-opacity="1"/></g></g></g></g></g><path fill="#1d1d1d" d="M 94.96875 74.816406 C 94.9375 76.003906 94.472656 76.734375 93.503906 77.167969 C 92.507812 77.609375 91.742188 77.21875 91.109375 76.507812 C 90.75 76.101562 90.523438 75.574219 90.253906 75.097656 C 89.574219 73.902344 88.589844 73.066406 87.195312 73.074219 C 85.84375 73.082031 84.730469 73.71875 84.058594 74.976562 C 83.859375 75.355469 83.660156 75.734375 83.421875 76.085938 C 82.652344 77.214844 81.59375 77.59375 80.582031 77.128906 C 79.46875 76.617188 78.988281 75.554688 79.363281 74.230469 C 80.164062 71.402344 82.074219 69.632812 84.839844 68.804688 C 88.914062 67.589844 93.519531 70.015625 94.742188 73.964844 C 94.84375 74.285156 94.917969 74.617188 94.96875 74.816406 Z M 94.96875 74.816406 " fill-opacity="1" fill-rule="nonzero"/><g clip-path="url(#03f8743c3b)"><path fill="#1d1d1d" d="M 117.648438 71.265625 C 117.621094 67.445312 115.46875 64.757812 111.722656 63.960938 C 110.90625 63.785156 110.597656 63.433594 110.414062 62.707031 C 107.808594 52.503906 97.457031 45.773438 88.558594 45.988281 C 83.890625 46.105469 79.214844 46.007812 74.351562 46.007812 C 74.351562 43.09375 74.332031 40.355469 74.382812 37.613281 C 74.390625 37.316406 74.777344 36.921875 75.085938 36.75 C 77.566406 35.390625 79.238281 32.609375 78.914062 30.117188 C 78.503906 26.957031 76.855469 24.6875 73.777344 23.675781 C 73.183594 23.484375 72.589844 23.378906 72 23.359375 C 71.410156 23.378906 70.8125 23.484375 70.222656 23.675781 C 67.144531 24.6875 65.496094 26.957031 65.085938 30.117188 C 64.761719 32.609375 66.433594 35.390625 68.914062 36.75 C 69.222656 36.921875 69.609375 37.316406 69.617188 37.613281 C 69.667969 40.355469 69.648438 43.09375 69.648438 46.007812 C 64.78125 46.007812 60.109375 46.105469 55.441406 45.988281 C 46.542969 45.773438 36.191406 52.503906 33.585938 62.707031 C 33.402344 63.433594 33.09375 63.785156 32.277344 63.960938 C 28.53125 64.757812 26.378906 67.445312 26.351562 71.265625 C 26.324219 74.398438 26.335938 77.53125 26.375 80.664062 C 26.417969 84.097656 28.644531 86.933594 31.996094 87.757812 C 32.832031 87.960938 33.164062 88.328125 33.355469 89.148438 C 35.738281 99.5 45.308594 107.105469 55.910156 107.109375 C 61.273438 107.109375 66.636719 107.117188 72 107.117188 C 77.363281 107.117188 82.726562 107.109375 88.089844 107.109375 C 98.691406 107.105469 108.261719 99.5 110.644531 89.148438 C 110.835938 88.328125 111.167969 87.960938 112.003906 87.757812 C 115.355469 86.933594 117.582031 84.097656 117.625 80.664062 C 117.664062 77.53125 117.675781 74.398438 117.648438 71.265625 Z M 106.507812 82.542969 C 106.460938 84.410156 106.222656 86.316406 105.753906 88.125 C 103.699219 96.003906 97.164062 101.542969 89.042969 101.949219 C 83.375 102.234375 77.679688 102.007812 72 102.007812 C 66.316406 102.007812 60.625 102.234375 54.957031 101.949219 C 46.835938 101.542969 40.300781 96.003906 38.246094 88.125 C 37.777344 86.316406 37.539062 84.410156 37.492188 82.542969 C 37.382812 78.296875 37.433594 74.046875 37.464844 69.796875 C 37.546875 59.105469 45.738281 50.972656 56.433594 50.960938 C 61.621094 50.953125 66.8125 50.949219 72 50.949219 C 77.1875 50.949219 82.378906 50.953125 87.566406 50.960938 C 98.261719 50.972656 106.453125 59.105469 106.535156 69.796875 C 106.566406 74.046875 106.617188 78.296875 106.507812 82.542969 Z M 106.507812 82.542969 " fill-opacity="1" fill-rule="nonzero"/></g><path fill="#1d1d1d" d="M 82.871094 85.570312 C 81.851562 85.128906 80.703125 85.472656 79.90625 86.460938 C 79.851562 86.527344 79.796875 86.59375 79.753906 86.664062 C 78.191406 89.265625 75.160156 90.78125 72 90.859375 C 68.839844 90.78125 65.808594 89.265625 64.246094 86.664062 C 64.203125 86.59375 64.144531 86.527344 64.09375 86.460938 C 63.296875 85.472656 62.148438 85.128906 61.128906 85.570312 C 60.078125 86.027344 59.46875 87.210938 59.882812 88.476562 C 60.164062 89.339844 60.675781 90.191406 61.28125 90.878906 C 64.125 94.121094 67.808594 95.507812 72 95.648438 C 76.191406 95.507812 79.875 94.121094 82.71875 90.878906 C 83.324219 90.191406 83.835938 89.339844 84.117188 88.476562 C 84.53125 87.210938 83.921875 86.027344 82.871094 85.570312 Z M 82.871094 85.570312 " fill-opacity="1" fill-rule="nonzero"/><path fill="#1d1d1d" d="M 63.46875 73.023438 C 63.503906 69.25 60.597656 66.277344 56.863281 66.261719 C 53.324219 66.246094 50.34375 69.230469 50.320312 72.824219 C 50.296875 76.699219 53.0625 79.566406 56.839844 79.582031 C 60.554688 79.601562 63.433594 76.75 63.46875 73.023438 Z M 63.46875 73.023438 " fill-opacity="1" fill-rule="nonzero"/></svg>